,
Brought to you by  http://www.scenetime.com/signup.php
 
 Hottest scene tracker on the net !!!   
 
No fake torrents from scenebalance 
shame on those who comment fake before downloading my torrents

    seed back for speed


 



...................................NFO:.................................................[pre][img]http://i824.photobucket.com/albums/zz161/akosipalos/redridinghoodcover.png[/img]         
     
*******************************************************************************
                   Red.Riding.Hood.2011.720p.BRRip.XviD.AC3-PRESTiGE
*******************************************************************************

-------------------------------------------------------------------------------
                              General Information
-------------------------------------------------------------------------------

TiTLE............: Red.Riding.Hood.2011.720p.BRRip.XviD.AC3-PRESTiGE

iMDB.............: http://www.imdb.com/title/tt1486185/

GENRE............: Fantasy | Horror | Mystery 

LANGUAGE.........: English

SOURCE...........: 720p.BluRay.x264-Felony :bow: MANY THANKS!!

FiLE SiZE........: 3.02GB

SAMPLE iNCLUDED..: YES

SUBS.............: N/A

DURATiON.........: 1h 40mn

ENCODED by.......: akosipalos



ViDEO iNFO:

ID                               : 0
Format                           : MPEG-4 Visual
Format profile                   : Advanced Simple@L5
Format settings, BVOP            : Yes
Format settings, QPel            : No
Format settings, GMC             : No warppoints
Format settings, Matrix          : Default (H.263)
Codec ID                         : XVID
Codec ID/Hint                    : XviD
Duration                         : 1h 40mn
Bit rate                         : 3 847 Kbps
Width                            : 1 280 pixels
Height                           : 528 pixels
Display aspect ratio             : 2.40:1
Frame rate                       : 23.976 fps
Color space                      : YUV
Chroma subsampling               : 4:2:0
Bit depth                        : 8 bits
Scan type                        : Progressive
Bits/(Pixel*Frame)               : 0.237
Stream size                      : 2.70 GiB (89%)
Writing library                  : XviD 1.2.1 (UTC 2008-12-04)



AUDiO iNFO:

ID                               : 1
Format                           : AC-3
Format/Info                      : Audio Coding 3
Mode extension                   : CM (complete main)
Codec ID                         : 2000
Duration                         : 1h 40mn
Bit rate mode                    : Constant
Bit rate                         : 448 Kbps
Channel(s)                       : 6 channels
Channel positions                : Front: L C R, Side: L R, LFE
Sampling rate                    : 48.0 KHz
Bit depth                        : 16 bits
Stream size                      : 322 MiB (10%)
Alignment                        : Split accross interleaves
Interleave, duration             : 500 ms (11.99 video frames)
Interleave, preload duration     : 500 ms




-------------------------------------------------------------------------------
                                 PLOT:
-------------------------------------------------------------------------------


Set in a medieval village that is haunted by a werewolf, a young girl falls for an orphaned woodcutter, much to her family's displeasure. 


-------------------------------------------------------------------------------
                                 CAST:
-------------------------------------------------------------------------------


Amanda Seyfried     ...     Valerie
Gary Oldman     ...     Father Solomon
Billy Burke     ...     Cesaire
Shiloh Fernandez     ...     Peter
Max Irons     ...     Henry Lazar
Virginia Madsen     ...     Suzette
Lukas Haas     ...     Father Auguste
Julie Christie     ...     Grandmother
Shauna Kain     ...     Roxanne
Michael Hogan     ...     The Reeve
Adrian Holmes     ...     Captain
Cole Heppell     ...     Claude
Christine Willes     ...     Madame Lazar
Michael Shanks     ...     Adrien Lazar
Kacey Rohl     ...     Prudence 


-------------------------------------------------------------------------------
                               SCREENS:
-------------------------------------------------------------------------------


[img]http://i824.photobucket.com/albums/zz161/akosipalos/red1.png[/img]

[img]http://i824.photobucket.com/albums/zz161/akosipalos/red2.png[/img]

[img]http://i824.photobucket.com/albums/zz161/akosipalos/red3.png[/img]

[img]http://i824.photobucket.com/albums/zz161/akosipalos/red4.png[/img]

[img]http://i824.photobucket.com/albums/zz161/akosipalos/red5.png[/img]


-------------------------------------------------------------------------------
                             Release Notes
-------------------------------------------------------------------------------


PRESTiGE - IS LOOKING FOR?: CAMMER'S, AUDIO SUPPLIERS, SYNCER'S, RETAIL
SUPPLIER'S, SILVER'S, SCREENER'S, LINE CAPPER'S

ENCODER'S - ANYTHING AT ALL EMAIL US AT..... prestige@hushmail.me

** ** ** ** ** ** ** ** **

PRESTiGE is the level of respect at which one is regarded by others....RIzE Above Or Sink Below...


-------------------------------------------------------------------------------
                                 GREETZ:
-------------------------------------------------------------------------------


twisted ,bigguy, CTFX, HiTM4N, smelise.paranoid53, mtyy, fifer, akosipalos, DiLLoN, imagine,"the squad" , floridajoe and To All Encoders Past And Present...


-------------------------------------------------------------------------------
Generated with Cool NFO Creator - http://fly.to/coolbeans
-------------------------------------------------------------------------------
[/pre]